<svg id="visual" viewBox="0 0 1080 540" width="1080" height="540" xmlns="http://www.w3.org/2000/svg" xmlns:xlink="http://www.w3.org/1999/xlink" version="1.1"><rect x="0" y="0" width="1080" height="540" fill="#0066ff"></rect><defs><linearGradient id="grad1_0" x1="50%" y1="100%" x2="100%" y2="0%"><stop offset="10%" stop-color="#0066ff" stop-opacity="1"></stop><stop offset="90%" stop-color="#0066ff" stop-opacity="1"></stop></linearGradient></defs><defs><linearGradient id="grad2_0" x1="0%" y1="100%" x2="50%" y2="0%"><stop offset="10%" stop-color="#0066ff" stop-opacity="1"></stop><stop offset="90%" stop-color="#0066ff" stop-opacity="1"></stop></linearGradient></defs><g transform="translate(1080, 540)"><path d="M-270 0C-265.3 -26.5 -260.5 -53 -255.8 -83.1C-251.2 -113.3 -246.6 -147.1 -218.4 -158.7C-190.3 -170.3 -138.6 -159.9 -105.2 -144.8C-71.8 -129.8 -56.8 -110.2 -42.3 -130.3C-27.9 -150.4 -13.9 -210.2 0 -270L0 0Z" fill="#ffffff"></path></g><g transform="translate(0, 0)"><path d="M270 0C274.7 33.3 279.3 66.6 256.8 83.4C234.2 100.3 184.4 100.6 159.4 115.8C134.3 131 133.9 161.1 118.1 162.6C102.3 164.1 71.1 137.1 48.8 150.3C26.6 163.4 13.3 216.7 0 270L0 0Z" fill="#ffffff"></path></g></svg>