<svg id="visual" viewBox="0 0 1080 450" width="1080" height="450" xmlns="http://www.w3.org/2000/svg" xmlns:xlink="http://www.w3.org/1999/xlink" version="1.1"><path d="M0 308L22.5 313.3C45 318.7 90 329.3 135 331C180 332.7 225 325.3 270 313.5C315 301.7 360 285.3 405 283.3C450 281.3 495 293.7 540 308.8C585 324 630 342 675 340.3C720 338.7 765 317.3 810 318.2C855 319 900 342 945 347.5C990 353 1035 341 1057.5 335L1080 329L1080 451L1057.5 451C1035 451 990 451 945 451C900 451 855 451 810 451C765 451 720 451 675 451C630 451 585 451 540 451C495 451 450 451 405 451C360 451 315 451 270 451C225 451 180 451 135 451C90 451 45 451 22.5 451L0 451Z" fill="#0066FF" stroke-linecap="round" stroke-linejoin="miter"></path></svg>